<svg width="120" height="120" viewBox="0 0 120 120" fill="none" xmlns="http://www.w3.org/2000/svg">
<rect width="120" height="120" rx="60" fill="#2B2E37"/>
<path d="M29.5 73.18C27.46 73.18 25.72 72.844 24.28 72.172C22.864 71.476 21.712 70.528 20.824 69.328C19.96 68.128 19.324 66.772 18.916 65.26C18.508 63.724 18.304 62.128 18.304 60.472V47.44H23.272V60.472C23.272 61.528 23.368 62.56 23.56 63.568C23.776 64.552 24.124 65.44 24.604 66.232C25.084 67.024 25.72 67.648 26.512 68.104C27.304 68.56 28.288 68.788 29.464 68.788C30.664 68.788 31.66 68.56 32.452 68.104C33.268 67.624 33.904 66.988 34.36 66.196C34.84 65.404 35.188 64.516 35.404 63.532C35.62 62.524 35.728 61.504 35.728 60.472V47.44H40.66V60.472C40.66 62.224 40.444 63.868 40.012 65.404C39.604 66.94 38.944 68.296 38.032 69.472C37.144 70.624 35.992 71.536 34.576 72.208C33.16 72.856 31.468 73.18 29.5 73.18ZM54.412 47.512H59.02L61.936 55.972L64.888 47.512H69.46L65.068 59.14L68.308 67.276L75.544 47.44H80.944L70.72 73H66.436L61.936 62.272L57.472 73H53.188L43 47.44H48.328L55.6 67.276L58.768 59.14L54.412 47.512ZM102.678 51.796H94.5064V73H89.5744V51.796H81.4024V47.44H102.678V51.796Z" fill="white"/>
</svg>
